<mxfile host="app.diagrams.net" modified="2021-09-26T14:55:32.784Z" agent="5.0 (Windows NT 10.0; Win64; x64) AppleWebKit/537.36 (KHTML, like Gecko) Chrome/93.0.4577.82 Safari/537.36" etag="P1I5rz0BMezbzWB697sS" version="15.1.4" type="github">
  <diagram id="pULkaHirmnz4jH_OKKGr" name="Page-1">
    <mxGraphModel dx="1328" dy="802" grid="1" gridSize="10" guides="1" tooltips="1" connect="1" arrows="1" fold="1" page="1" pageScale="1" pageWidth="827" pageHeight="1169" math="0" shadow="0">
      <root>
        <mxCell id="0" />
        <mxCell id="1" parent="0" />
        <mxCell id="mpedleY7LbxGnOdpD2Kv-21" value="" style="ellipse;whiteSpace=wrap;html=1;fillColor=#f5f5f5;strokeColor=#666666;fontColor=#333333;" vertex="1" parent="1">
          <mxGeometry x="95" y="90" width="410" height="120" as="geometry" />
        </mxCell>
        <mxCell id="mpedleY7LbxGnOdpD2Kv-1" value="" style="rounded=1;whiteSpace=wrap;html=1;fillColor=#f5f5f5;strokeColor=#666666;fontColor=#333333;" vertex="1" parent="1">
          <mxGeometry x="80" y="240" width="630" height="100" as="geometry" />
        </mxCell>
        <mxCell id="mpedleY7LbxGnOdpD2Kv-4" value="delayed&lt;br&gt;msg" style="rounded=1;whiteSpace=wrap;html=1;fillColor=#dae8fc;strokeColor=#6c8ebf;" vertex="1" parent="1">
          <mxGeometry x="550" y="260" width="120" height="60" as="geometry" />
        </mxCell>
        <mxCell id="mpedleY7LbxGnOdpD2Kv-14" value="" style="edgeStyle=orthogonalEdgeStyle;rounded=0;orthogonalLoop=1;jettySize=auto;html=1;" edge="1" parent="1" source="mpedleY7LbxGnOdpD2Kv-12" target="mpedleY7LbxGnOdpD2Kv-13">
          <mxGeometry relative="1" as="geometry" />
        </mxCell>
        <mxCell id="mpedleY7LbxGnOdpD2Kv-12" value="Idle Handler 1" style="rounded=1;whiteSpace=wrap;html=1;fillColor=#d5e8d4;strokeColor=#82b366;" vertex="1" parent="1">
          <mxGeometry x="155" y="120" width="120" height="60" as="geometry" />
        </mxCell>
        <mxCell id="mpedleY7LbxGnOdpD2Kv-13" value="Idle Handler 2" style="rounded=1;whiteSpace=wrap;html=1;fillColor=#d5e8d4;strokeColor=#82b366;" vertex="1" parent="1">
          <mxGeometry x="315" y="120" width="120" height="60" as="geometry" />
        </mxCell>
        <mxCell id="mpedleY7LbxGnOdpD2Kv-18" value="Idle status" style="rounded=1;whiteSpace=wrap;html=1;fillColor=#dae8fc;strokeColor=none;" vertex="1" parent="1">
          <mxGeometry x="110" y="260" width="380" height="60" as="geometry" />
        </mxCell>
        <mxCell id="mpedleY7LbxGnOdpD2Kv-22" value="" style="endArrow=classic;html=1;entryX=0.5;entryY=0;entryDx=0;entryDy=0;exitX=0.5;exitY=1;exitDx=0;exitDy=0;fillColor=#f8cecc;strokeColor=#b85450;" edge="1" parent="1" source="mpedleY7LbxGnOdpD2Kv-21" target="mpedleY7LbxGnOdpD2Kv-18">
          <mxGeometry width="50" height="50" relative="1" as="geometry">
            <mxPoint x="290" y="220" as="sourcePoint" />
            <mxPoint x="440" y="380" as="targetPoint" />
          </mxGeometry>
        </mxCell>
        <mxCell id="mpedleY7LbxGnOdpD2Kv-23" value="" style="edgeStyle=orthogonalEdgeStyle;rounded=0;orthogonalLoop=1;jettySize=auto;html=1;dashed=1;exitX=1;exitY=0.5;exitDx=0;exitDy=0;" edge="1" parent="1" source="mpedleY7LbxGnOdpD2Kv-18">
          <mxGeometry relative="1" as="geometry">
            <mxPoint x="534" y="290" as="sourcePoint" />
            <mxPoint x="550" y="290" as="targetPoint" />
          </mxGeometry>
        </mxCell>
      </root>
    </mxGraphModel>
  </diagram>
</mxfile>
